<svg xmlns="http://www.w3.org/2000/svg">

  <svg id="logo" width="46" height="48" viewBox="0 0 46 48">
    <g clip-path="url(#clip0_2128_1480)">
      <path d="M4.0295 12.3528C4.3109 12.3573 4.59038 12.3058 4.85167 12.2012C5.11295 12.0966 5.35081 11.941 5.5514 11.7436C5.75198 11.5462 5.91128 11.3108 6.02002 11.0513C6.12875 10.7917 6.18475 10.5131 6.18475 10.2316C6.18475 9.95017 6.12875 9.67155 6.02002 9.41196C5.91128 9.15237 5.75198 8.91702 5.5514 8.7196C5.35081 8.52218 5.11295 8.36665 4.85167 8.26206C4.59038 8.15747 4.3109 8.10591 4.0295 8.11039C2.87051 8.12794 1.94006 9.07254 1.94006 10.2317C1.94006 11.3909 2.87051 12.3353 4.0295 12.3528ZM36.5178 10.5548C36.7987 10.5584 37.0775 10.5062 37.3381 10.4012C37.5986 10.2962 37.8357 10.1405 38.0356 9.94314C38.2355 9.74577 38.3942 9.51066 38.5025 9.25146C38.6109 8.99227 38.6666 8.71414 38.6666 8.43322C38.6665 8.1523 38.6107 7.87419 38.5023 7.61502C38.394 7.35585 38.2352 7.12078 38.0352 6.92346C37.8353 6.72615 37.5981 6.5705 37.3376 6.46557C37.077 6.36063 36.7982 6.30849 36.5173 6.31218C35.3583 6.32973 34.428 7.27451 34.428 8.43367C34.4282 9.59284 35.3588 10.5374 36.5178 10.5548Z" fill="#FF598B"/>
      <path d="M38.2393 37.8084C38.5208 37.8129 38.8002 37.7613 39.0615 37.6566C39.3228 37.552 39.5606 37.3965 39.7612 37.199C39.9617 37.0016 40.121 36.7662 40.2297 36.5066C40.3384 36.247 40.3944 35.9684 40.3943 35.6869C40.3943 35.4055 40.3383 35.1269 40.2295 34.8673C40.1207 34.6077 39.9614 34.3724 39.7608 34.175C39.5602 33.9776 39.3223 33.8221 39.061 33.7175C38.7997 33.613 38.5202 33.5615 38.2388 33.566C37.0798 33.5835 36.1496 34.5283 36.1497 35.6875C36.1499 36.8466 37.0804 37.791 38.2393 37.8084ZM12.6935 4.24281C12.9744 4.24646 13.2532 4.19428 13.5138 4.08931C13.7744 3.98435 14.0115 3.82867 14.2114 3.63133C14.4113 3.43398 14.5701 3.1989 14.6784 2.93972C14.7868 2.68053 14.8426 2.40241 14.8426 2.12149C14.8426 1.84057 14.7868 1.56245 14.6784 1.30327C14.5701 1.04409 14.4113 0.809 14.2114 0.611656C14.0115 0.414312 13.7744 0.258638 13.5138 0.15367C13.2532 0.0487018 12.9744 -0.00347109 12.6935 0.000179118C11.5343 0.0179105 10.6041 0.962328 10.6041 2.12149C10.6041 3.28066 11.5343 4.22525 12.6935 4.24281Z" fill="#FFCD59"/>
      <path d="M25.2439 18.9743C24.9923 18.9743 24.744 18.9169 24.5179 18.8066C24.2918 18.6963 24.0937 18.5359 23.9388 18.3377C23.7839 18.1395 23.6762 17.9086 23.6238 17.6625C23.5715 17.4164 23.5758 17.1616 23.6366 16.9175C23.7028 16.6521 23.7569 16.3856 23.7976 16.1196C23.3005 16.3248 22.771 16.4403 22.2336 16.4606C21.2702 16.4973 20.4077 16.3349 19.6725 15.9788C18.952 15.6336 18.352 15.0796 17.9505 14.3889C17.1598 13.0184 17.228 11.2155 18.1232 9.79576C18.9766 8.4403 20.4222 7.70669 21.9893 7.82651C23.1965 7.9209 24.2545 8.37296 25.1018 9.14866C25.2562 8.71319 25.4039 8.24734 25.5448 7.7511C26.4104 4.69594 26.6962 1.62806 26.6985 1.59707C26.7181 1.38053 26.7802 1.16996 26.8812 0.97741C26.9821 0.784857 27.1201 0.614092 27.2871 0.474873C27.4541 0.335654 27.6469 0.230711 27.8545 0.16604C28.0621 0.101369 28.2804 0.078238 28.4969 0.0979694C28.9342 0.137959 29.3377 0.349889 29.6188 0.687196C29.8999 1.0245 30.0355 1.4596 29.996 1.89689C29.984 2.03427 29.6794 5.30525 28.7301 8.6554C28.2508 10.347 27.6845 11.7765 27.043 12.9177C27.0902 13.1721 27.1279 13.4331 27.156 13.7008C27.2896 14.9923 27.1832 16.3827 26.849 17.7208C26.759 18.0785 26.5523 18.396 26.2616 18.623C25.9708 18.85 25.6127 18.9738 25.2439 18.9743ZM21.6397 11.1245C21.4685 11.1245 21.1669 11.1747 20.924 11.5598C20.6916 11.9287 20.6461 12.4325 20.8187 12.7318C21.0483 13.13 21.7239 13.1647 22.1065 13.1502C22.5406 13.1337 22.9855 12.8615 23.4208 12.3654C23.3483 12.2135 23.2626 12.0684 23.1646 11.9316C22.8052 11.4324 22.3502 11.1772 21.7322 11.1288C21.7089 11.1274 21.6775 11.1245 21.6397 11.1245Z" fill="#59B2FF"/>
      <path d="M20.4825 23.5107C13.6151 18.0974 6.43717 15.7521 4.45018 18.2726C4.26322 18.5123 4.12581 18.7868 4.04594 19.0802C4.03377 19.1158 4.02443 19.1523 4.018 19.1894V19.1937C3.99138 19.3068 3.9715 19.4212 3.95836 19.5371L0.070362 42.3009C-0.552384 45.9568 3.06678 48.8839 6.51221 47.5116L27.5966 39.1101C27.9684 38.9622 28.8834 38.397 29.1338 38.085C29.2002 38.02 29.2621 37.9512 29.3196 37.8784C31.3062 35.3575 27.3494 28.9254 20.4825 23.5101V23.5107Z" fill="#FFCD59"/>
      <path d="M29.3173 37.8795C31.3053 35.3577 27.35 28.9243 20.4826 23.5107C13.6152 18.0969 6.43633 15.7526 4.44845 18.2744C2.46057 20.7962 6.41555 27.2296 13.283 32.6432C20.1504 38.057 27.3292 40.4013 29.3173 37.8795Z" fill="#FFCD59"/>
      <path d="M28.1183 36.4109C29.7496 34.3411 26.1561 28.7876 20.0914 24.0068C14.0268 19.2256 7.78748 17.0278 6.15638 19.097C4.52474 21.1667 8.11829 26.7202 14.1829 31.5011C20.2474 36.2823 26.4869 38.4806 28.1183 36.4109Z" fill="#FFCD59"/>
      <path d="M21.2302 25.9795C21.5111 25.9831 21.7899 25.9309 22.0505 25.826C22.311 25.721 22.5482 25.5653 22.7481 25.368C22.948 25.1706 23.1068 24.9356 23.2151 24.6764C23.3234 24.4172 23.3792 24.1391 23.3792 23.8582C23.3792 23.5772 23.3234 23.2991 23.2151 23.0399C23.1068 22.7807 22.948 22.5457 22.7481 22.3483C22.5482 22.151 22.311 21.9953 22.0505 21.8903C21.7899 21.7854 21.5111 21.7332 21.2302 21.7368C20.0712 21.7544 19.1407 22.699 19.1407 23.8582C19.1407 25.0173 20.0712 25.9619 21.2302 25.9795Z" fill="#59B2FF"/>
      <path d="M32.6708 21.852L32.6864 21.8346C32.7057 21.8139 32.7415 21.7755 32.7931 21.7234C32.9538 21.5636 33.1211 21.4106 33.2946 21.2649C33.9322 20.7312 34.6289 20.2727 35.3711 19.8983C37.1851 18.9804 39.886 18.2314 43.4282 19.0481C44.4926 19.2935 45.5541 18.6297 45.7997 17.5655C46.0451 16.5013 45.3813 15.4395 44.3171 15.1942C39.7316 14.1369 36.0859 15.1035 33.5848 16.3702C32.5692 16.8826 31.6162 17.5106 30.7447 18.2416C30.4832 18.4614 30.2313 18.6924 29.9898 18.934C29.8961 19.0282 29.8047 19.1246 29.7157 19.2233L29.6942 19.2475L29.6867 19.2561L29.6831 19.26L29.6819 19.2614C29.6819 19.2614 29.6803 19.2632 31.1794 20.5528L29.6803 19.2632C28.9859 20.091 29.0842 21.3229 29.9011 22.03C30.718 22.7371 31.9511 22.658 32.6708 21.852ZM13.08 7.74591C12.9324 7.51168 12.7402 7.30885 12.5141 7.14905C12.2881 6.98925 12.0327 6.87562 11.7627 6.81466C11.4927 6.7537 11.2133 6.74661 10.9405 6.79381C10.6677 6.841 10.407 6.94154 10.1731 7.08967C9.93912 7.23735 9.73652 7.42969 9.57688 7.65569C9.41725 7.88169 9.30371 8.13694 9.24275 8.40684C9.18179 8.67673 9.17461 8.956 9.22161 9.22867C9.26862 9.50135 9.36889 9.76209 9.51669 9.996C9.59317 10.1183 11.1605 12.6575 11.4825 16.135C11.8103 19.6682 10.7722 22.9159 8.39246 25.8281C9.19377 26.8465 10.1581 27.905 11.2596 28.9637C12.7837 27.2024 13.9305 25.3096 14.684 23.307C15.6109 20.8433 15.9388 18.2309 15.6593 15.5432C15.2138 11.2673 13.3536 8.18024 13.08 7.74591Z" fill="#FF598B"/>
      <path d="M39.4463 28.0438C40.5213 28.322 41.2811 28.6252 41.6094 28.7663C41.9931 29.0018 42.4417 29.1092 42.8905 29.0732C43.3392 29.0371 43.7649 28.8594 44.1061 28.5657C44.3321 28.3704 44.5144 28.1297 44.6412 27.8592C44.7679 27.5887 44.8362 27.2945 44.8417 26.9959C44.8492 26.5458 44.7134 26.1049 44.4539 25.737C44.1944 25.3692 43.8247 25.0933 43.3981 24.9494C42.3919 24.5026 38.5793 22.9936 33.5395 23.2617C30.1471 23.4421 26.8848 24.3817 23.844 26.0572C20.9647 27.6441 18.2911 29.8922 15.8638 32.7602C17.0219 33.5842 18.2282 34.3382 19.4764 35.0181C23.5746 30.3471 28.3032 27.8151 33.5719 27.4805C35.5475 27.3606 37.5295 27.5507 39.4463 28.0438Z" fill="#59B2FF"/>
    </g>
    <defs>
      <clipPath id="clip0_2128_1480">
      <rect width="45.8507" height="48" fill="white"/>
      </clipPath>
    </defs>
  </svg>

  <symbol id="calendar" viewBox="0 0 32 32">
    <path fill-rule="evenodd" clip-rule="evenodd" d="M10.6667 1.66675C11.219 1.66675 11.6667 2.11446 11.6667 2.66675V4.33341H20.3333V2.66675C20.3333 2.11446 20.781 1.66675 21.3333 1.66675C21.8856 1.66675 22.3333 2.11446 22.3333 2.66675V4.33341H25.3333C27.3584 4.33341 29 5.97504 29 8.00008V26.6667C29 28.6918 27.3584 30.3334 25.3333 30.3334H6.66667C4.64162 30.3334 3 28.6918 3 26.6667V8.00008C3 5.97504 4.64162 4.33341 6.66667 4.33341H9.66667V2.66675C9.66667 2.11446 10.1144 1.66675 10.6667 1.66675ZM9.66667 6.33341H6.66667C5.74619 6.33341 5 7.07961 5 8.00008V12.3334H27V8.00008C27 7.07961 26.2538 6.33341 25.3333 6.33341H22.3333V8.00008C22.3333 8.55237 21.8856 9.00008 21.3333 9.00008C20.781 9.00008 20.3333 8.55237 20.3333 8.00008V6.33341H11.6667V8.00008C11.6667 8.55237 11.219 9.00008 10.6667 9.00008C10.1144 9.00008 9.66667 8.55237 9.66667 8.00008V6.33341ZM27 14.3334H5V26.6667C5 27.5872 5.74619 28.3334 6.66667 28.3334H25.3333C26.2538 28.3334 27 27.5872 27 26.6667V14.3334Z" fill="currentColor"/>
  </symbol>

  <symbol id="brush" viewBox="0 0 32 32">
    <path fill-rule="evenodd" clip-rule="evenodd" d="M9.33335 3.66675C9.24495 3.66675 9.16016 3.70187 9.09765 3.76438C9.03514 3.82689 9.00002 3.91168 9.00002 4.00008V15.0001H23V4.00008C23 3.91167 22.9649 3.82689 22.9024 3.76438C22.8399 3.70187 22.7551 3.66675 22.6667 3.66675H19.6667V8.00008C19.6667 8.55237 19.219 9.00008 18.6667 9.00008C18.1144 9.00008 17.6667 8.55237 17.6667 8.00008V3.66675H14.3334V5.33341C14.3334 5.8857 13.8856 6.33341 13.3334 6.33341C12.7811 6.33341 12.3334 5.8857 12.3334 5.33341V3.66675H9.33335ZM9.33335 1.66675C8.71451 1.66675 8.12102 1.91258 7.68344 2.35017C7.24585 2.78775 7.00002 3.38124 7.00002 4.00008V15.2252C6.76099 15.3386 6.54075 15.4929 6.3501 15.6835C5.91252 16.1211 5.66669 16.7146 5.66669 17.3334V18.6667C5.66669 19.6392 6.053 20.5718 6.74063 21.2595C7.42826 21.9471 8.36089 22.3334 9.33335 22.3334H12C12.0884 22.3334 12.1732 22.3685 12.2357 22.431C12.2982 22.4936 12.3334 22.5783 12.3334 22.6667V26.5334C12.3334 27.5059 12.7197 28.4385 13.4073 29.1261C14.0949 29.8138 15.0276 30.2001 16 30.2001C16.9725 30.2001 17.9051 29.8138 18.5927 29.1261C19.2804 28.4385 19.6667 27.5059 19.6667 26.5334V22.6667C19.6667 22.5783 19.7018 22.4936 19.7643 22.431C19.8268 22.3685 19.9116 22.3334 20 22.3334H22.6667C23.6391 22.3334 24.5718 21.9471 25.2594 21.2595C25.947 20.5718 26.3334 19.6392 26.3334 18.6667V17.3334C26.3334 16.7146 26.0875 16.1211 25.6499 15.6835C25.4593 15.4929 25.2391 15.3386 25 15.2252V4.00008C25 3.38124 24.7542 2.78775 24.3166 2.35017C23.879 1.91258 23.2855 1.66675 22.6667 1.66675H9.33335ZM8.00002 17.0001C7.91162 17.0001 7.82683 17.0352 7.76432 17.0977C7.70181 17.1602 7.66669 17.245 7.66669 17.3334V18.6667C7.66669 19.1088 7.84228 19.5327 8.15484 19.8453C8.4674 20.1578 8.89133 20.3334 9.33335 20.3334H12C12.6189 20.3334 13.2123 20.5792 13.6499 21.0168C14.0875 21.4544 14.3334 22.0479 14.3334 22.6667V26.5334C14.3334 26.9754 14.5089 27.3994 14.8215 27.7119C15.1341 28.0245 15.558 28.2001 16 28.2001C16.442 28.2001 16.866 28.0245 17.1785 27.7119C17.4911 27.3994 17.6667 26.9754 17.6667 26.5334V22.6667C17.6667 22.0479 17.9125 21.4544 18.3501 21.0168C18.7877 20.5792 19.3812 20.3334 20 20.3334H22.6667C23.1087 20.3334 23.5326 20.1578 23.8452 19.8453C24.1578 19.5327 24.3334 19.1088 24.3334 18.6667V17.3334C24.3334 17.245 24.2982 17.1602 24.2357 17.0977C24.1732 17.0352 24.0884 17.0001 24 17.0001H8.00002Z" fill="currentColor"/>
  </symbol>

  <symbol id="contact" viewBox="0 0 32 32">
    <path fill-rule="evenodd" clip-rule="evenodd" d="M10.6667 1.66675C11.219 1.66675 11.6667 2.11446 11.6667 2.66675V4.33341H20.3333V2.66675C20.3333 2.11446 20.781 1.66675 21.3333 1.66675C21.8856 1.66675 22.3333 2.11446 22.3333 2.66675V4.33341H25.3333C27.3584 4.33341 29 5.97504 29 8.00008V26.6667C29 28.6918 27.3584 30.3334 25.3333 30.3334H6.66667C4.64162 30.3334 3 28.6918 3 26.6667V8.00008C3 5.97504 4.64162 4.33341 6.66667 4.33341H9.66667V2.66675C9.66667 2.11446 10.1144 1.66675 10.6667 1.66675ZM6.66667 6.33341C5.74619 6.33341 5 7.07961 5 8.00008V26.6667C5 27.5872 5.74619 28.3334 6.66667 28.3334H25.3333C26.2538 28.3334 27 27.5872 27 26.6667V8.00008C27 7.07961 26.2538 6.33341 25.3333 6.33341H6.66667ZM16 11.6667C15.0795 11.6667 14.3333 12.4129 14.3333 13.3334C14.3333 14.2539 15.0795 15.0001 16 15.0001C16.9205 15.0001 17.6667 14.2539 17.6667 13.3334C17.6667 12.4129 16.9205 11.6667 16 11.6667ZM12.3333 13.3334C12.3333 11.3084 13.975 9.66675 16 9.66675C18.025 9.66675 19.6667 11.3084 19.6667 13.3334C19.6667 15.3585 18.025 17.0001 16 17.0001C13.975 17.0001 12.3333 15.3585 12.3333 13.3334ZM9.40728 21.4074C10.0949 20.7197 11.0275 20.3334 12 20.3334H20C20.9725 20.3334 21.9051 20.7197 22.5927 21.4074C23.2804 22.095 23.6667 23.0276 23.6667 24.0001C23.6667 24.5524 23.219 25.0001 22.6667 25.0001C22.1144 25.0001 21.6667 24.5524 21.6667 24.0001C21.6667 23.5581 21.4911 23.1341 21.1785 22.8216C20.866 22.509 20.442 22.3334 20 22.3334H12C11.558 22.3334 11.1341 22.509 10.8215 22.8216C10.5089 23.1341 10.3333 23.5581 10.3333 24.0001C10.3333 24.5524 9.88562 25.0001 9.33333 25.0001C8.78105 25.0001 8.33333 24.5524 8.33333 24.0001C8.33333 23.0276 8.71964 22.095 9.40728 21.4074Z" fill="currentColor"/>
  </symbol>

  <symbol id="ticket" viewBox="0 0 32 32">
    <path fill-rule="evenodd" clip-rule="evenodd" d="M2.74063 6.74069C3.42826 6.05306 4.36089 5.66675 5.33335 5.66675H26.6667C27.6391 5.66675 28.5718 6.05306 29.2594 6.74069C29.947 7.42832 30.3334 8.36095 30.3334 9.33341V12.0001C30.3334 12.5524 29.8856 13.0001 29.3334 13.0001C28.5377 13.0001 27.7746 13.3162 27.212 13.8788C26.6494 14.4414 26.3334 15.2044 26.3334 16.0001C26.3334 16.7957 26.6494 17.5588 27.212 18.1214C27.7746 18.684 28.5377 19.0001 29.3334 19.0001C29.8856 19.0001 30.3334 19.4478 30.3334 20.0001V22.6667C30.3334 23.6392 29.947 24.5718 29.2594 25.2595C28.5718 25.9471 27.6391 26.3334 26.6667 26.3334H5.33335C4.36089 26.3334 3.42826 25.9471 2.74063 25.2595C2.053 24.5718 1.66669 23.6392 1.66669 22.6667V20.0001C1.66669 19.4478 2.1144 19.0001 2.66669 19.0001C3.46234 19.0001 4.2254 18.684 4.78801 18.1214C5.35062 17.5588 5.66669 16.7957 5.66669 16.0001C5.66669 15.2044 5.35062 14.4414 4.78801 13.8788C4.2254 13.3162 3.46234 13.0001 2.66669 13.0001C2.1144 13.0001 1.66669 12.5524 1.66669 12.0001V9.33341C1.66669 8.36095 2.053 7.42832 2.74063 6.74069ZM18.3334 24.3334V22.6667C18.3334 22.1145 17.8856 21.6667 17.3334 21.6667C16.7811 21.6667 16.3334 22.1145 16.3334 22.6667V24.3334H5.33335C4.89133 24.3334 4.4674 24.1578 4.15484 23.8453C3.84228 23.5327 3.66669 23.1088 3.66669 22.6667V20.8991C4.62013 20.7044 5.50384 20.234 6.20222 19.5356C7.1399 18.5979 7.66669 17.3262 7.66669 16.0001C7.66669 14.674 7.1399 13.4022 6.20222 12.4645C5.50384 11.7662 4.62013 11.2957 3.66669 11.1011V9.33341C3.66669 8.89139 3.84228 8.46746 4.15484 8.1549C4.4674 7.84234 4.89133 7.66675 5.33335 7.66675H16.3334V9.33341C16.3334 9.8857 16.7811 10.3334 17.3334 10.3334C17.8856 10.3334 18.3334 9.8857 18.3334 9.33341V7.66675H26.6667C27.1087 7.66675 27.5326 7.84234 27.8452 8.1549C28.1578 8.46746 28.3334 8.89139 28.3334 9.33341V11.1011C27.3799 11.2957 26.4962 11.7662 25.7978 12.4645C24.8601 13.4022 24.3334 14.674 24.3334 16.0001C24.3334 17.3262 24.8601 18.5979 25.7978 19.5356C26.4962 20.234 27.3799 20.7044 28.3334 20.8991V22.6667C28.3334 23.1088 28.1578 23.5327 27.8452 23.8453C27.5326 24.1578 27.1087 24.3334 26.6667 24.3334H18.3334ZM17.3334 13.6667C17.8856 13.6667 18.3334 14.1145 18.3334 14.6667V17.3334C18.3334 17.8857 17.8856 18.3334 17.3334 18.3334C16.7811 18.3334 16.3334 17.8857 16.3334 17.3334V14.6667C16.3334 14.1145 16.7811 13.6667 17.3334 13.6667Z" fill="currentColor"/>
  </symbol>

  <symbol id="upload" viewBox="0 0 32 32">
    <path fill-rule="evenodd" clip-rule="evenodd" d="M15.2929 3.29289C15.6834 2.90237 16.3166 2.90237 16.7071 3.29289L23.3738 9.95956C23.7643 10.3501 23.7643 10.9832 23.3738 11.3738C22.9832 11.7643 22.3501 11.7643 21.9596 11.3738L17 6.41421V20C17 20.5523 16.5523 21 16 21C15.4477 21 15 20.5523 15 20V6.41421L10.0404 11.3738C9.64992 11.7643 9.01675 11.7643 8.62623 11.3738C8.2357 10.9832 8.2357 10.3501 8.62623 9.95956L15.2929 3.29289ZM4 19C4.55228 19 5 19.4477 5 20V25.3333C5 25.7754 5.17559 26.1993 5.48816 26.5118C5.80072 26.8244 6.22464 27 6.66667 27H25.3333C25.7754 27 26.1993 26.8244 26.5118 26.5118C26.8244 26.1993 27 25.7754 27 25.3333V20C27 19.4477 27.4477 19 28 19C28.5523 19 29 19.4477 29 20V25.3333C29 26.3058 28.6137 27.2384 27.9261 27.9261C27.2384 28.6137 26.3058 29 25.3333 29H6.66667C5.69421 29 4.76157 28.6137 4.07394 27.9261C3.38631 27.2384 3 26.3058 3 25.3333V20C3 19.4477 3.44772 19 4 19Z" fill="currentColor"/>
  </symbol>

  <symbol id="circle-alert" viewBox="0 0 32 32">
    <path fill-rule="evenodd" clip-rule="evenodd" d="M16 3.66675C9.18851 3.66675 3.66669 9.18857 3.66669 16.0001C3.66669 22.8116 9.18851 28.3334 16 28.3334C22.8115 28.3334 28.3333 22.8116 28.3333 16.0001C28.3333 9.18857 22.8115 3.66675 16 3.66675ZM1.66669 16.0001C1.66669 8.084 8.08394 1.66675 16 1.66675C23.9161 1.66675 30.3333 8.084 30.3333 16.0001C30.3333 23.9162 23.9161 30.3334 16 30.3334C8.08394 30.3334 1.66669 23.9162 1.66669 16.0001ZM16 9.66675C16.5523 9.66675 17 10.1145 17 10.6667V16.0001C17 16.5524 16.5523 17.0001 16 17.0001C15.4477 17.0001 15 16.5524 15 16.0001V10.6667C15 10.1145 15.4477 9.66675 16 9.66675ZM15 21.3334C15 20.7811 15.4477 20.3334 16 20.3334H16.0134C16.5656 20.3334 17.0134 20.7811 17.0134 21.3334C17.0134 21.8857 16.5656 22.3334 16.0134 22.3334H16C15.4477 22.3334 15 21.8857 15 21.3334Z" fill="currentColor"/>
  </symbol>

  <symbol id="check" viewBox="0 0 32 32">
    <path fill-rule="evenodd" clip-rule="evenodd" d="M27.3738 7.29289C27.7643 7.68342 27.7643 8.31658 27.3738 8.70711L12.7071 23.3738C12.3166 23.7643 11.6835 23.7643 11.2929 23.3738L4.62627 16.7071C4.23574 16.3166 4.23574 15.6834 4.62627 15.2929C5.01679 14.9024 5.64996 14.9024 6.04048 15.2929L12 21.2525L25.9596 7.29289C26.3501 6.90237 26.9833 6.90237 27.3738 7.29289Z" fill="currentColor"/>
  </symbol>

  <symbol id="building-2" viewBox="0 0 32 32">
    <path fill-rule="evenodd" clip-rule="evenodd" d="M10.6666 3.66675C10.2246 3.66675 9.80067 3.84234 9.48811 4.1549C9.17555 4.46746 8.99996 4.89139 8.99996 5.33341V28.3334H23V5.33341C23 4.89139 22.8244 4.46746 22.5118 4.1549C22.1992 3.84234 21.7753 3.66675 21.3333 3.66675H10.6666ZM25 11.0001V5.33341C25 4.36095 24.6136 3.42832 23.926 2.74069C23.2384 2.05306 22.3058 1.66675 21.3333 1.66675H10.6666C9.69417 1.66675 8.76153 2.05306 8.0739 2.74069C7.38627 3.42832 6.99996 4.36095 6.99996 5.33341V15.0001H5.33329C4.36083 15.0001 3.4282 15.3864 2.74057 16.074C2.05293 16.7617 1.66663 17.6943 1.66663 18.6667V26.6667C1.66663 27.6392 2.05293 28.5718 2.74057 29.2595C3.4282 29.9471 4.36083 30.3334 5.33329 30.3334H26.6666C27.6391 30.3334 28.5717 29.9471 29.2593 29.2595C29.947 28.5718 30.3333 27.6392 30.3333 26.6667V14.6667C30.3333 13.6943 29.947 12.7617 29.2593 12.074C28.5717 11.3864 27.6391 11.0001 26.6666 11.0001H25ZM25 13.0001V28.3334H26.6666C27.1087 28.3334 27.5326 28.1578 27.8451 27.8453C28.1577 27.5327 28.3333 27.1088 28.3333 26.6667V14.6667C28.3333 14.2247 28.1577 13.8008 27.8451 13.4882C27.5326 13.1757 27.1087 13.0001 26.6666 13.0001H25ZM6.99996 17.0001H5.33329C4.89127 17.0001 4.46734 17.1757 4.15478 17.4882C3.84222 17.8008 3.66663 18.2247 3.66663 18.6667V26.6667C3.66663 27.1088 3.84222 27.5327 4.15478 27.8453C4.46734 28.1578 4.89127 28.3334 5.33329 28.3334H6.99996V17.0001ZM12.3333 8.00008C12.3333 7.4478 12.781 7.00008 13.3333 7.00008H18.6666C19.2189 7.00008 19.6666 7.4478 19.6666 8.00008C19.6666 8.55237 19.2189 9.00008 18.6666 9.00008H13.3333C12.781 9.00008 12.3333 8.55237 12.3333 8.00008ZM12.3333 13.3334C12.3333 12.7811 12.781 12.3334 13.3333 12.3334H18.6666C19.2189 12.3334 19.6666 12.7811 19.6666 13.3334C19.6666 13.8857 19.2189 14.3334 18.6666 14.3334H13.3333C12.781 14.3334 12.3333 13.8857 12.3333 13.3334ZM12.3333 18.6667C12.3333 18.1145 12.781 17.6667 13.3333 17.6667H18.6666C19.2189 17.6667 19.6666 18.1145 19.6666 18.6667C19.6666 19.219 19.2189 19.6667 18.6666 19.6667H13.3333C12.781 19.6667 12.3333 19.219 12.3333 18.6667ZM12.3333 24.0001C12.3333 23.4478 12.781 23.0001 13.3333 23.0001H18.6666C19.2189 23.0001 19.6666 23.4478 19.6666 24.0001C19.6666 24.5524 19.2189 25.0001 18.6666 25.0001H13.3333C12.781 25.0001 12.3333 24.5524 12.3333 24.0001Z" fill="currentColor"/>
  </symbol>

  <symbol id="video" viewBox="0 0 32 32">
    <path fill-rule="evenodd" clip-rule="evenodd" d="M5.33329 9C4.41282 9 3.66663 9.74619 3.66663 10.6667V21.3333C3.66663 22.2538 4.41282 23 5.33329 23H18.6666C19.5871 23 20.3333 22.2538 20.3333 21.3333V17.347C20.3332 17.3373 20.3332 17.3276 20.3333 17.3178V14.019C20.3331 14.0069 20.3331 13.9949 20.3333 13.9829V10.6667C20.3333 9.74619 19.5871 9 18.6666 9H5.33329ZM22.3333 12.2588V10.6667C22.3333 8.64162 20.6917 7 18.6666 7H5.33329C3.30825 7 1.66663 8.64162 1.66663 10.6667V21.3333C1.66663 23.3584 3.30825 25 5.33329 25H18.6666C20.6917 25 22.3333 23.3584 22.3333 21.3333V19.2019L27.7433 22.8085C27.9943 22.9755 28.2859 23.0713 28.587 23.0858C28.8881 23.1002 29.1875 23.0326 29.4533 22.8903C29.7191 22.748 29.9413 22.5363 30.0962 22.2777C30.2512 22.0191 30.3331 21.7233 30.3333 21.4219V10.4936C30.3333 10.4935 30.3333 10.4937 30.3333 10.4936C30.3333 10.2005 30.256 9.9122 30.1092 9.65845C29.9624 9.40462 29.7511 9.19404 29.4968 9.04796C29.2425 8.90188 28.9542 8.82548 28.661 8.82648C28.3677 8.82747 28.0799 8.90583 27.8266 9.05363L22.3333 12.2588ZM22.3333 14.5743V16.7982L28.3333 20.7982V11.0735L22.3333 14.5743Z" fill="currentColor"/>
  </symbol>

</svg>
